<svg xmlns="http://www.w3.org/2000/svg" xmlns:xlink="http://www.w3.org/1999/xlink" version="1.1" id="Layer_1" x="0px" y="0px" width="100.001px" height="93.457px" viewBox="0 0 100.001 93.457" enable-background="new 0 0 100.001 93.457" xml:space="preserve">
<g>
	<path fill="#000000" d="M76.988,59.344h5.396v-6.07V16.858v-6.069h-5.396H23.041h-5.396v6.069v36.416v6.07h5.396H76.988z    M23.041,16.858h53.947v36.416H23.041V16.858z"/>
	<path fill="#000000" d="M98.408,75.45l-5.236-6.57c-0.545-0.683-1.22-1.299-1.971-1.845c1.211-1.533,1.973-3.497,1.973-5.669v-52.6   C93.174,3.933,89.545,0,85.081,0H14.949c-4.463,0-8.093,3.933-8.093,8.766v52.6c0,2.172,0.76,4.136,1.971,5.669   c-0.748,0.546-1.426,1.162-1.97,1.845l-5.236,6.57c-1.107,1.387-1.602,2.964-1.592,4.52H0c0,0,0,11.699,0,12.079   c0,1.18,0.24,1.408,1.293,1.408c0.381,0,96.856,0,97.316,0c1.181,0,1.352-0.397,1.352-1.619c0-0.461,0.04-11.868,0.04-11.868   C100.01,78.414,99.514,76.837,98.408,75.45z M12.251,8.766c0-1.606,1.214-2.922,2.698-2.922h70.132   c1.482,0,2.698,1.316,2.698,2.922v52.6c0,1.605-1.216,2.922-2.698,2.922H14.949c-1.484,0-2.698-1.316-2.698-2.922V8.766z    M5.841,78.812l5.235-6.57c0.926-1.159,2.895-2.108,4.377-2.108h69.121c1.482,0,3.455,0.949,4.379,2.108l5.238,6.57   c0.922,1.162,0.465,2.11-1.018,2.11H6.856C5.373,80.922,4.915,79.974,5.841,78.812z M94.924,88.96H5.273v-2.839   c0.511,0.101,1.028,0.197,1.583,0.197h86.317c0.614,0,1.188-0.092,1.75-0.22V88.96z"/>
	<path fill="#000000" d="M17.197,78.337h65.635c1.49,0,2.698-1.208,2.698-2.698c0-1.489-1.208-2.698-2.698-2.698H17.197   c-1.49,0-2.697,1.209-2.697,2.698C14.5,77.129,15.707,78.337,17.197,78.337z"/>
	<path fill="#000000" d="M52.58,20.56H34.525c-2.483,0-4.516,2.032-4.516,4.515V43.13c0,2.485,2.033,4.517,4.516,4.517h9.03V37.462   h-3.389v-4.207h3.389v-2.115c0-3.034,2.277-5.501,5.076-5.501h3.388v4.191h-3.388c-0.398,0-0.847,0.544-0.847,1.27v2.155h4.234   v4.207h-4.234v10.185h4.796c2.483,0,4.515-2.031,4.515-4.517V25.075C57.095,22.592,55.063,20.56,52.58,20.56z"/>
</g>
</svg>